<svg width="41" height="32" viewBox="0 0 41 32" fill="none" xmlns="http://www.w3.org/2000/svg">
<path d="M25.7141 20.2144V20.9286C25.7141 21.5204 25.2344 22.0001 24.6427 22.0001H24.2856L23.1198 30.1602C22.969 31.2159 22.0649 32 20.9985 32H4.71559C3.64922 32 2.74512 31.2159 2.59427 30.1602L1.42856 22.0001H1.07142C0.479684 22.0001 0 21.5204 0 20.9286V20.2144C0 19.6226 0.479684 19.1429 1.07142 19.1429H4.0777L8.84463 12.5885C9.30869 11.9504 10.2021 11.8093 10.8402 12.2734C11.4783 12.7374 11.6193 13.6309 11.1553 14.269L7.61053 19.1429H18.1036L14.5588 14.2689C14.0948 13.6309 14.2359 12.7374 14.874 12.2733C15.512 11.8093 16.4055 11.9504 16.8695 12.5884L21.6364 19.1429H24.6427C25.2344 19.1429 25.7141 19.6226 25.7141 20.2144ZM13.9285 28.0715V23.0715C13.9285 22.4797 13.4488 22.0001 12.8571 22.0001C12.2653 22.0001 11.7856 22.4797 11.7856 23.0715V28.0715C11.7856 28.6632 12.2653 29.1429 12.8571 29.1429C13.4488 29.1429 13.9285 28.6632 13.9285 28.0715ZM18.9284 28.0715V23.0715C18.9284 22.4797 18.4488 22.0001 17.857 22.0001C17.2653 22.0001 16.7856 22.4797 16.7856 23.0715V28.0715C16.7856 28.6632 17.2653 29.1429 17.857 29.1429C18.4488 29.1429 18.9284 28.6632 18.9284 28.0715ZM8.92851 28.0715V23.0715C8.92851 22.4797 8.44883 22.0001 7.85709 22.0001C7.26536 22.0001 6.78567 22.4797 6.78567 23.0715V28.0715C6.78567 28.6632 7.26536 29.1429 7.85709 29.1429C8.44883 29.1429 8.92851 28.6632 8.92851 28.0715Z" fill="black"/>
<circle cx="29" cy="12" r="11" fill="black" stroke="white" stroke-width="2"/>
<path d="M25.91 14.684C27.0393 13.928 27.9353 13.2653 28.598 12.696C29.2607 12.1267 29.7413 11.5993 30.04 11.114C30.3387 10.6287 30.488 10.148 30.488 9.672C30.488 9.23333 30.3527 8.87867 30.082 8.608C29.8207 8.33733 29.4567 8.202 28.99 8.202C28.4767 8.202 28.0707 8.37933 27.772 8.734C27.4733 9.08867 27.31 9.59267 27.282 10.246L25.616 9.616C25.6813 8.68267 26.0267 7.95 26.652 7.418C27.2773 6.886 28.094 6.62 29.102 6.62C29.8207 6.62 30.4273 6.75533 30.922 7.026C31.426 7.29667 31.804 7.656 32.056 8.104C32.308 8.54267 32.434 9.028 32.434 9.56C32.434 10.428 32.1073 11.2493 31.454 12.024C30.8007 12.7893 29.76 13.6107 28.332 14.488V14.502C28.8733 14.4647 29.438 14.446 30.026 14.446H32.574V16H25.91V14.684Z" fill="white"/>
</svg>
